<svg width="151.000000" height="62.000000" viewBox="0 0 151 62" fill="none" xmlns="http://www.w3.org/2000/svg" xmlns:xlink="http://www.w3.org/1999/xlink">
	<desc>
			Created with Pixso.
	</desc>
	<defs>
		<clipPath id="clip7322_560">
			<rect id="fa-brands:aws" rx="0.000000" width="103.000000" height="61.000000" transform="translate(24.000000 0.500000)" fill="white" fill-opacity="0"/>
		</clipPath>
		<clipPath id="clip7322_559">
			<rect id="col-md-3" rx="0.000000" width="150.000000" height="61.000000" transform="translate(0.500000 0.500000)" fill="white" fill-opacity="0"/>
		</clipPath>
	</defs>
	<g clip-path="url(#clip7322_559)">
		<rect id="fa-brands:aws" rx="0.000000" width="103.000000" height="61.000000" transform="translate(24.000000 0.500000)" fill="#FFFFFF" fill-opacity="0"/>
		<g clip-path="url(#clip7322_560)">
			<path id="Vector" d="M52.88 22.48C52.77 26.12 54.6 27.73 54.65 28.76C54.62 28.96 54.55 29.16 54.44 29.34C54.32 29.51 54.16 29.66 53.98 29.76L51.91 31.2C51.64 31.39 51.32 31.5 51 31.51C50.93 31.51 49.67 31.8 47.68 27.4C46.46 28.9 44.92 30.11 43.16 30.93C41.4 31.75 39.48 32.16 37.54 32.13C34.9 32.27 27.75 30.64 28.12 23.1C27.86 16.95 33.64 13.13 39.61 13.45C40.76 13.46 43.11 13.51 47.22 14.46L47.22 11.95C47.66 7.7 44.84 4.4 39.96 4.9C39.57 4.9 36.82 4.82 32.54 6.52C31.34 7.07 31.19 6.98 30.8 6.98C29.59 6.98 30.09 3.53 30.32 3.09C31.16 2.06 36.13 0.14 41 0.17C44.26 -0.12 47.5 0.88 50.02 2.94C51.05 4.08 51.83 5.41 52.32 6.86C52.81 8.3 53 9.83 52.88 11.35L52.88 22.48ZM38.88 27.69C44.14 27.61 46.36 24.48 46.87 22.79C47.27 21.18 47.2 20.16 47.2 18.39C45.63 18.02 43.38 17.61 40.79 17.61C38.34 17.43 33.85 18.51 34.03 22.79C33.83 25.49 35.83 27.83 38.88 27.69ZM66.57 31.39C65.3 31.5 64.71 30.61 64.52 29.72L56.45 3.28C56.29 2.83 56.19 2.37 56.14 1.9C56.11 1.7 56.16 1.51 56.28 1.35C56.39 1.19 56.57 1.08 56.76 1.06C56.8 1.05 56.42 1.06 60.37 1.06C61.79 0.91 62.25 2.02 62.4 2.72L68.19 25.34L73.56 2.72C73.65 2.2 74.04 0.94 75.63 1.08L78.41 1.08C78.76 1.05 80.21 1 80.47 2.74L85.88 25.65L91.85 2.74C91.93 2.39 92.29 0.92 93.91 1.08L97.1 1.08C97.24 1.06 98.1 0.95 97.95 2.45C97.88 2.75 98.5 0.74 89.41 29.74C89.22 30.63 88.63 31.53 87.35 31.41L84.33 31.41C82.55 31.59 82.3 29.86 82.27 29.68L76.9 7.66L71.59 29.66C71.56 29.84 71.31 31.57 69.54 31.39L66.57 31.39L66.57 31.39ZM110.87 32.29C109.92 32.29 105.38 32.24 101.58 30.32C101.2 30.16 100.88 29.89 100.66 29.55C100.43 29.21 100.31 28.81 100.32 28.41L100.32 26.68C100.32 25.32 101.32 25.57 101.75 25.73C103.37 26.39 104.42 26.88 106.41 27.28C112.35 28.48 114.96 26.91 115.6 26.56C117.73 25.3 117.9 22.43 116.45 20.94C114.76 19.53 113.94 19.48 107.85 17.57C107.1 17.36 100.77 15.38 100.75 9.16C100.65 4.62 104.81 0.13 112.02 0.17C114.07 0.17 119.54 0.84 121.02 2.68C121.24 3.02 121.34 3.41 121.33 3.81L121.33 5.44C121.33 6.15 121.06 6.51 120.54 6.51C119.29 6.37 117.07 4.71 112.58 4.78C111.46 4.72 106.11 4.92 106.35 8.79C106.28 11.83 110.66 12.98 111.16 13.11C117.07 14.87 119.04 15.16 121.39 17.86C124.17 21.43 122.67 25.62 122.09 26.76C119 32.79 111.01 32.3 110.87 32.29ZM117.39 49.14C106.04 57.44 89.57 61.86 75.51 61.86C56.54 61.99 38.21 55.07 24.12 42.47C23.06 41.53 23.99 40.23 25.28 40.95C40.91 49.82 58.6 54.47 76.61 54.46C90.06 54.39 103.36 51.69 115.75 46.5C117.66 45.7 119.27 47.76 117.39 49.14ZM122.11 43.79C120.66 41.94 112.51 42.92 108.86 43.36C107.76 43.48 107.58 42.53 108.57 41.84C115.06 37.31 125.72 38.61 126.95 40.13C128.17 41.65 126.62 52.24 120.54 57.3C119.61 58.08 118.71 57.67 119.13 56.64C120.5 53.23 123.57 45.64 122.11 43.79Z" fill="#737373" fill-opacity="1.000000" fill-rule="nonzero"/>
		</g>
	</g>
</svg>
