<svg width="24.000000" height="24.000000" viewBox="0 0 24 24" fill="none" xmlns="http://www.w3.org/2000/svg" xmlns:xlink="http://www.w3.org/1999/xlink">
	<desc>
			Created with Pixso.
	</desc>
	<defs>
		<clipPath id="clip7322_677">
			<rect id="bx:bx-phone" rx="0.000000" width="23.000000" height="23.000000" transform="translate(0.500000 0.500000)" fill="white" fill-opacity="0"/>
		</clipPath>
	</defs>
	<rect id="bx:bx-phone" rx="0.000000" width="23.000000" height="23.000000" transform="translate(0.500000 0.500000)" fill="#FFFFFF" fill-opacity="0"/>
	<g clip-path="url(#clip7322_677)">
		<path id="Vector" d="M18.84 12.35C18.73 12.24 18.6 12.15 18.45 12.09C18.31 12.03 18.15 11.99 18 11.99C17.84 11.99 17.68 12.03 17.54 12.09C17.39 12.15 17.26 12.24 17.15 12.35L15.23 14.26C14.35 14 12.69 13.4 11.64 12.35C10.59 11.3 10 9.64 9.73 8.76L11.64 6.84C11.75 6.73 11.84 6.6 11.9 6.45C11.96 6.31 12 6.15 12 6C12 5.84 11.96 5.68 11.9 5.54C11.84 5.39 11.75 5.26 11.64 5.15L6.84 0.35C6.73 0.24 6.6 0.15 6.45 0.09C6.31 0.03 6.15 0 6 0C5.84 0 5.68 0.03 5.54 0.09C5.39 0.15 5.26 0.24 5.15 0.35L1.89 3.6C1.44 4.06 1.18 4.68 1.19 5.32C1.22 7.03 1.67 12.97 6.35 17.64C11.02 22.32 16.96 22.77 18.67 22.8L18.7 22.8C19.34 22.8 19.93 22.55 20.39 22.1L23.64 18.84C23.75 18.73 23.84 18.6 23.9 18.46C23.96 18.31 24 18.15 24 18C24 17.84 23.96 17.68 23.9 17.54C23.84 17.39 23.75 17.26 23.64 17.15L18.84 12.35ZM18.69 20.4C17.19 20.38 12.07 19.97 8.04 15.95C4 11.91 3.61 6.77 3.59 5.3L6 2.89L9.1 6L7.55 7.55C7.41 7.69 7.3 7.86 7.25 8.05C7.19 8.24 7.18 8.45 7.22 8.64C7.25 8.78 7.95 12.05 9.94 14.04C11.94 16.04 15.21 16.74 15.35 16.77C15.54 16.81 15.75 16.8 15.94 16.75C16.13 16.69 16.3 16.59 16.44 16.44L18 14.89L21.1 18L18.69 20.4Z" fill="#8EC2F2" fill-opacity="1.000000" fill-rule="nonzero"/>
	</g>
</svg>
