<svg width="153.000000" height="34.000000" viewBox="0 0 153 34" fill="none" xmlns="http://www.w3.org/2000/svg" xmlns:xlink="http://www.w3.org/1999/xlink">
	<desc>
			Created with Pixso.
	</desc>
	<defs>
		<clipPath id="clip7322_548">
			<rect id="fa-brands:hooli" rx="0.000000" width="102.000000" height="33.000000" transform="translate(25.500000 0.500000)" fill="white" fill-opacity="0"/>
		</clipPath>
		<clipPath id="clip7322_547">
			<rect id="col-md-3" rx="0.000000" width="152.000000" height="33.000000" transform="translate(0.500000 0.500000)" fill="white" fill-opacity="0"/>
		</clipPath>
	</defs>
	<g clip-path="url(#clip7322_547)">
		<rect id="fa-brands:hooli" rx="0.000000" width="102.000000" height="33.000000" transform="translate(25.500000 0.500000)" fill="#FFFFFF" fill-opacity="0"/>
		<g clip-path="url(#clip7322_548)">
			<path id="Vector" d="M48.25 31.92L54.41 32.05C52.29 31.31 50.23 30.42 48.25 29.37L48.25 31.92ZM57.54 31.07L57.54 31.92L54.41 32.05C60.29 34.04 65.66 34.31 69.66 33.2C66.45 33.23 62.28 32.78 57.54 31.07ZM123.34 12.69C125.9 12.69 128 10.63 128 8.07C128 5.52 125.92 4.16 123.34 4.16C120.79 4.16 118.69 5.53 118.69 8.07C118.69 10.61 120.77 12.69 123.34 12.69ZM118.68 31.92L128 31.92L128 14.28L118.68 14.28L118.68 31.92ZM106.82 31.92L116.13 31.92L116.13 0.75L106.82 5.1L106.82 31.92ZM101.83 12.86C98.9 9.96 93.71 10.13 93.71 10.13C93.71 10.13 88.52 9.96 85.6 12.86C82.67 15.77 82.9 18.27 82.9 21.26C82.9 24.24 82.67 26.73 85.6 29.64C88.53 32.54 93.71 32.37 93.71 32.37C93.71 32.37 98.91 32.54 101.83 29.64C104.76 26.73 104.53 24.24 104.53 21.26C104.52 18.26 104.74 15.75 101.83 12.86ZM95.42 24.34C95.42 24.91 95.13 26.33 93.7 26.33C92.27 26.33 91.98 24.91 91.98 24.34L91.98 17.89C91.98 16.5 93.15 16.15 93.7 16.15C94.25 16.15 95.42 16.48 95.42 17.89L95.42 24.34ZM78.33 12.86C75.4 9.96 70.22 10.13 70.22 10.13C70.22 10.13 65.04 9.96 62.11 12.86C61.8 13.16 61.51 13.48 61.25 13.82C55.11 9.09 49.59 6.4 44.82 4.07L44.82 0.76L41.2 2.45C32.45 -1.07 26.88 -0.45 25.54 2.47C25.54 2.47 21.54 7.7 35.49 20.16L35.49 31.92L44.81 31.92L44.81 27.35C43.76 26.68 42.71 25.97 41.68 25.18C39.3 23.4 37.27 21.74 35.5 20.17L35.5 15.22C37.61 17.57 40.41 20.24 44.1 23.25L44.82 23.83L44.82 19.07C44.82 17.97 45.1 16.17 46.56 16.17C48.03 16.17 48.27 17.27 48.27 18.56L48.27 26.33C51.16 28.28 54.27 29.86 57.55 31.06L57.55 16.07C57.55 13.08 55.4 10.1 51.02 10.1C48.48 10.08 46.11 11.41 44.82 13.6L44.82 4.93C51.57 8.26 58.33 12.35 60.9 14.23C59.26 16.56 59.4 18.72 59.4 21.21C59.4 24.19 59.18 26.68 62.11 29.59C65.04 32.49 70.22 32.32 70.22 32.32C70.22 32.32 75.42 32.49 78.33 29.59C81.26 26.68 81.02 24.19 81.02 21.21C81.02 18.26 81.26 15.75 78.33 12.86ZM35.49 5.1L35.49 15.21C27.65 6.51 29.23 3.08 29.82 2.58C32 0.76 35.86 1.3 40.19 2.92L35.49 5.1ZM71.94 24.34C71.94 24.91 71.65 26.33 70.22 26.33C68.79 26.33 68.5 24.91 68.5 24.34L68.5 17.89C68.5 16.5 69.67 16.15 70.22 16.15C70.77 16.15 71.94 16.48 71.94 17.89L71.94 24.34Z" fill="#737373" fill-opacity="1.000000" fill-rule="nonzero"/>
		</g>
	</g>
</svg>
