<svg width="24.000000" height="24.000000" viewBox="0 0 24 24" fill="none" xmlns="http://www.w3.org/2000/svg" xmlns:xlink="http://www.w3.org/1999/xlink">
	<desc>
			Created with Pixso.
	</desc>
	<defs>
		<clipPath id="clip7322_633">
			<rect id="ant-design:instagram-outlined" rx="0.000000" width="23.000000" height="23.000000" transform="translate(0.500000 0.500000)" fill="white" fill-opacity="0"/>
		</clipPath>
	</defs>
	<rect id="ant-design:instagram-outlined" rx="0.000000" width="23.000000" height="23.000000" transform="translate(0.500000 0.500000)" fill="#FFFFFF" fill-opacity="0"/>
	<g clip-path="url(#clip7322_633)">
		<path id="Vector" d="M12 5.84C8.59 5.84 5.84 8.59 5.84 12C5.84 15.4 8.59 18.15 12 18.15C15.4 18.15 18.15 15.4 18.15 12C18.15 8.59 15.4 5.84 12 5.84ZM12 15.99C9.8 15.99 8 14.2 8 12C8 9.79 9.8 8 12 8C14.2 8 16 9.79 16 12C16 14.2 14.2 15.99 12 15.99ZM18.4 4.16C17.61 4.16 16.97 4.8 16.97 5.59C16.97 6.39 17.61 7.03 18.4 7.03C19.2 7.03 19.84 6.39 19.84 5.59C19.84 5.4 19.8 5.22 19.73 5.04C19.66 4.87 19.55 4.71 19.42 4.58C19.29 4.44 19.13 4.34 18.95 4.27C18.78 4.19 18.59 4.16 18.4 4.16ZM23.99 12C23.99 10.34 24.01 8.7 23.91 7.05C23.82 5.13 23.38 3.42 21.98 2.02C20.57 0.61 18.87 0.18 16.95 0.08C15.29 -0.01 13.65 0 12 0C10.34 0 8.7 -0.01 7.05 0.08C5.13 0.18 3.43 0.61 2.02 2.02C0.62 3.42 0.18 5.13 0.09 7.05C0 8.7 0.01 10.34 0.01 12C0.01 13.65 0 15.29 0.09 16.95C0.18 18.87 0.62 20.57 2.02 21.97C3.43 23.38 5.13 23.82 7.05 23.91C8.71 24 10.35 23.99 12 23.99C13.66 23.99 15.3 24 16.95 23.91C18.87 23.82 20.58 23.38 21.98 21.97C23.39 20.57 23.82 18.87 23.91 16.95C24.01 15.29 23.99 13.65 23.99 12ZM21.35 19.07C21.13 19.62 20.87 20.02 20.45 20.44C20.02 20.87 19.62 21.13 19.07 21.35C17.49 21.98 13.75 21.84 12 21.84C10.25 21.84 6.5 21.98 4.92 21.35C4.37 21.13 3.97 20.87 3.55 20.45C3.12 20.02 2.86 19.62 2.64 19.07C2.02 17.49 2.16 13.74 2.16 12C2.16 10.25 2.02 6.5 2.64 4.92C2.86 4.37 3.12 3.96 3.55 3.54C3.97 3.12 4.37 2.86 4.92 2.64C6.5 2.01 10.25 2.16 12 2.16C13.75 2.16 17.5 2.01 19.08 2.64C19.62 2.86 20.03 3.12 20.45 3.54C20.87 3.97 21.14 4.37 21.35 4.92C21.98 6.5 21.84 10.25 21.84 12C21.84 13.74 21.98 17.49 21.35 19.07Z" fill="#E61F5A" fill-opacity="1.000000" fill-rule="nonzero"/>
	</g>
</svg>
