<svg width="70.000000" height="72.000000" viewBox="0 0 70 72" fill="none" xmlns="http://www.w3.org/2000/svg" xmlns:xlink="http://www.w3.org/1999/xlink">
	<desc>
			Created with Pixso.
	</desc>
	<defs>
		<clipPath id="clip7322_598">
			<rect id="icn settings .icn-xl" rx="0.000000" width="69.000000" height="71.000000" transform="translate(0.500000 0.500000)" fill="white" fill-opacity="0"/>
		</clipPath>
	</defs>
	<rect id="icn settings .icn-xl" rx="0.000000" width="69.000000" height="71.000000" transform="translate(0.500000 0.500000)" fill="#FFFFFF" fill-opacity="0"/>
	<g clip-path="url(#clip7322_598)">
		<path id="Vector" d="M28.19 42C35.96 42 42.29 35.72 42.29 28C42.29 20.27 35.96 14 28.19 14C20.41 14 14.09 20.27 14.09 28C14.09 35.72 20.41 42 28.19 42ZM28.19 21C32.08 21 35.24 24.13 35.24 28C35.24 31.86 32.08 35 28.19 35C24.3 35 21.14 31.86 21.14 28C21.14 24.13 24.3 21 28.19 21Z" fill="#FFFFFF" fill-opacity="1.000000" fill-rule="nonzero"/>
		<path id="Vector" d="M26.18 70.34C26.77 70.76 27.47 71 28.19 71C28.91 71 29.61 70.76 30.2 70.34C31.25 69.57 56 51.26 55.9 28.4C55.9 12.74 43.47 0 28.19 0C12.91 0 0.48 12.74 0.48 28.38C0.38 51.26 25.13 69.57 26.18 70.34ZM28.19 7.1C39.65 7.1 48.97 16.65 48.97 28.41C49.04 44.17 33.77 58.31 28.19 62.95C22.61 58.31 7.34 44.16 7.41 28.4C7.41 16.65 16.73 7.1 28.19 7.1Z" fill="#FFFFFF" fill-opacity="1.000000" fill-rule="nonzero"/>
	</g>
</svg>
