<svg width="146.000000" height="59.000000" viewBox="0 0 146 59" fill="none" xmlns="http://www.w3.org/2000/svg" xmlns:xlink="http://www.w3.org/1999/xlink">
	<desc>
			Created with Pixso.
	</desc>
	<defs>
		<clipPath id="clip7322_551">
			<rect id="fa-brands:lyft" rx="0.000000" width="82.000000" height="58.000000" transform="translate(32.000000 0.500000)" fill="white" fill-opacity="0"/>
		</clipPath>
		<clipPath id="clip7322_550">
			<rect id="col-md-3" rx="0.000000" width="145.000000" height="58.000000" transform="translate(0.500000 0.500000)" fill="white" fill-opacity="0"/>
		</clipPath>
	</defs>
	<g clip-path="url(#clip7322_550)">
		<rect id="fa-brands:lyft" rx="0.000000" width="82.000000" height="58.000000" transform="translate(32.000000 0.500000)" fill="#FFFFFF" fill-opacity="0"/>
		<g clip-path="url(#clip7322_551)">
			<path id="Vector" d="M31.5 0.99L44.11 0.99L44.11 35C44.11 40.4 46.54 43.61 48.52 44.95C46.46 46.76 40.22 48.35 35.52 44.49C32.76 42.21 31.5 38.41 31.5 34.87L31.5 0.99ZM110.26 29.27L110.26 25.68L114.12 25.68L114.12 13.17L109.89 13.17C108.25 5.62 101.59 0.01 93.63 0.01C84.46 0.01 76.98 7.51 76.98 16.75L76.98 45.96C79.58 46.33 82.72 45.91 85.36 43.68C88.14 41.39 89.38 37.61 89.38 34.06L89.38 32.97L95.67 32.97L95.67 20.45L89.38 20.45L89.38 16.65C89.38 11.01 97.85 11.01 97.85 16.65L97.85 29.22C97.85 38.44 105.3 45.96 114.5 45.96L114.5 33.49C112.14 33.49 110.26 31.58 110.26 29.27ZM62.56 13.13L62.56 31.55C62.56 34.06 58.7 34.06 58.7 31.55L58.7 13.13L46.25 13.13L46.25 34.76C46.25 38.64 47.54 43.56 53.54 45.18C59.54 46.77 62.98 43.45 62.98 43.45C62.64 45.63 60.63 47.24 57.32 47.57C54.81 47.83 51.61 46.98 50.02 46.3L50.02 57.76C54.09 58.98 58.37 59.35 62.6 58.52C70.24 57.04 75.05 50.64 75.05 42.09L75.05 13.05L62.56 13.05L62.56 13.13Z" fill="#737373" fill-opacity="1.000000" fill-rule="nonzero"/>
		</g>
	</g>
</svg>
