<svg width="72.000000" height="72.000000" viewBox="0 0 72 72" fill="none" xmlns="http://www.w3.org/2000/svg" xmlns:xlink="http://www.w3.org/1999/xlink">
	<desc>
			Created with Pixso.
	</desc>
	<defs>
		<clipPath id="clip7322_588">
			<rect id="icn settings .icn-xl" rx="0.000000" width="71.000000" height="71.000000" transform="translate(0.500000 0.500000)" fill="white" fill-opacity="0"/>
		</clipPath>
	</defs>
	<rect id="icn settings .icn-xl" rx="0.000000" width="71.000000" height="71.000000" transform="translate(0.500000 0.500000)" fill="#FFFFFF" fill-opacity="0"/>
	<g clip-path="url(#clip7322_588)">
		<path id="Vector" d="M56.42 38.99C56.07 38.64 55.66 38.36 55.2 38.17C54.74 37.98 54.24 37.88 53.75 37.88C53.25 37.88 52.76 37.98 52.3 38.17C51.84 38.36 51.42 38.64 51.07 38.99L45.03 45.03C42.23 44.2 37 42.3 33.69 38.99C30.38 35.68 28.49 30.45 27.66 27.65L33.69 21.62C34.05 21.26 34.33 20.85 34.52 20.39C34.71 19.93 34.8 19.44 34.8 18.94C34.8 18.44 34.71 17.95 34.52 17.49C34.33 17.03 34.05 16.61 33.69 16.26L18.54 1.11C18.19 0.75 17.77 0.47 17.31 0.28C16.85 0.09 16.36 0 15.86 0C15.36 0 14.87 0.09 14.41 0.28C13.95 0.47 13.54 0.75 13.18 1.11L2.91 11.38C1.47 12.82 0.66 14.8 0.69 16.82C0.78 22.21 2.2 40.95 16.97 55.72C31.74 70.48 50.48 71.91 55.87 72L55.98 72C57.98 72 59.87 71.21 61.3 69.78L71.58 59.5C71.93 59.15 72.21 58.73 72.4 58.28C72.59 57.82 72.69 57.32 72.69 56.83C72.69 56.33 72.59 55.84 72.4 55.38C72.21 54.92 71.93 54.5 71.58 54.15L56.42 38.99ZM55.94 64.42C51.21 64.34 35.04 63.07 22.33 50.35C9.58 37.6 8.34 21.37 8.27 16.74L15.86 9.14L25.66 18.94L20.76 23.84C20.31 24.28 19.99 24.83 19.81 25.43C19.63 26.04 19.6 26.67 19.73 27.29C19.82 27.73 22.04 38.06 28.33 44.35C34.62 50.64 44.95 52.86 45.39 52.95C46 53.08 46.64 53.06 47.25 52.88C47.85 52.7 48.4 52.37 48.84 51.92L53.75 47.02L63.54 56.82L55.94 64.42Z" fill="#00A0C1" fill-opacity="1.000000" fill-rule="nonzero"/>
	</g>
</svg>
