<svg width="151.000000" height="72.000000" viewBox="0 0 151 72" fill="none" xmlns="http://www.w3.org/2000/svg" xmlns:xlink="http://www.w3.org/1999/xlink">
	<desc>
			Created with Pixso.
	</desc>
	<defs>
		<clipPath id="clip7322_563">
			<rect id="fa-brands:reddit-alien" rx="0.000000" width="75.000000" height="71.000000" transform="translate(38.000000 0.500000)" fill="white" fill-opacity="0"/>
		</clipPath>
		<clipPath id="clip7322_562">
			<rect id="col-md-3" rx="0.000000" width="150.000000" height="71.000000" transform="translate(0.500000 0.500000)" fill="white" fill-opacity="0"/>
		</clipPath>
	</defs>
	<g clip-path="url(#clip7322_562)">
		<rect id="fa-brands:reddit-alien" rx="0.000000" width="75.000000" height="71.000000" transform="translate(38.000000 0.500000)" fill="#FFFFFF" fill-opacity="0"/>
		<g clip-path="url(#clip7322_563)">
			<path id="Vector" d="M104.92 27.66C102.53 27.66 100.42 28.65 98.87 30.21C93.17 26.25 85.49 23.7 76.98 23.42L81.4 3.41L95.49 6.59C95.49 10.05 98.3 12.87 101.75 12.87C105.26 12.87 108.08 9.97 108.08 6.51C108.08 3.04 105.27 0.14 101.75 0.14C99.29 0.14 97.16 1.63 96.11 3.67L80.56 0.2C79.77 -3.06e-5 79.01 0.56 78.8 1.34L73.95 23.41C65.5 23.76 57.9 26.31 52.18 30.27C50.64 28.65 48.45 27.66 46.05 27.66C37.18 27.66 34.27 39.62 42.4 43.71C42.11 44.97 41.98 46.32 41.98 47.67C41.98 61.11 57.06 71.99 75.56 71.99C94.15 71.99 109.22 61.11 109.22 47.67C109.22 46.32 109.07 44.91 108.72 43.64C116.69 39.54 113.75 27.66 104.92 27.66ZM55.28 44.56C55.28 41.03 58.09 38.19 61.62 38.19C65.07 38.19 67.88 41.01 67.88 44.56C67.88 48.02 65.07 50.84 61.62 50.84C58.11 50.86 55.28 48.02 55.28 44.56ZM89.5 59.55C83.69 65.39 67.29 65.39 61.48 59.55C60.84 58.99 60.84 58 61.48 57.35C62.04 56.79 63.03 56.79 63.58 57.35C68.02 61.92 82.75 62 87.37 57.35C87.93 56.79 88.92 56.79 89.48 57.35C90.14 58 90.14 58.99 89.5 59.55ZM89.37 50.86C85.92 50.86 83.11 48.04 83.11 44.57C83.11 41.05 85.92 38.21 89.37 38.21C92.88 38.21 95.71 41.03 95.71 44.57C95.69 48.02 92.88 50.86 89.37 50.86Z" fill="#737373" fill-opacity="1.000000" fill-rule="nonzero"/>
		</g>
	</g>
</svg>
