<svg width="24.000000" height="23.999710" viewBox="0 0 24 23.9997" fill="none" xmlns="http://www.w3.org/2000/svg" xmlns:xlink="http://www.w3.org/1999/xlink">
	<desc>
			Created with Pixso.
	</desc>
	<defs>
		<clipPath id="clip2_33">
			<rect id="icn search .icn-xs" width="24.000000" height="23.999712" fill="white" fill-opacity="0"/>
		</clipPath>
	</defs>
	<rect id="icn search .icn-xs" width="24.000000" height="23.999712" fill="#FFFFFF" fill-opacity="0"/>
	<g clip-path="url(#clip2_33)">
		<path id="vector" d="M17.19 15.47L23.64 21.93C23.87 22.16 24 22.46 24 22.78C23.99 23.11 23.87 23.41 23.64 23.64C23.41 23.87 23.11 23.99 22.78 23.99C22.46 23.99 22.16 23.87 21.93 23.64L15.47 17.18C13.54 18.68 11.12 19.38 8.69 19.15C6.26 18.92 4.01 17.77 2.39 15.94C0.78 14.11 -0.08 11.73 0 9.29C0.08 6.85 1.08 4.53 2.81 2.81C4.53 1.08 6.85 0.08 9.29 0C11.73 -0.08 14.11 0.78 15.94 2.39C17.77 4.01 18.92 6.26 19.15 8.69C19.38 11.12 18.68 13.54 17.18 15.47L17.19 15.47ZM9.6 16.79C11.5 16.79 13.34 16.04 14.69 14.69C16.04 13.34 16.8 11.5 16.8 9.59C16.8 7.69 16.04 5.85 14.69 4.5C13.34 3.15 11.5 2.39 9.6 2.39C7.69 2.39 5.85 3.15 4.5 4.5C3.15 5.85 2.4 7.69 2.4 9.59C2.4 11.5 3.15 13.34 4.5 14.69C5.85 16.04 7.69 16.79 9.6 16.79Z" fill="#737373" fill-opacity="1.000000" fill-rule="evenodd"/>
	</g>
</svg>
