<svg width="24.000000" height="22.400162" viewBox="0 0 24 22.4002" fill="none" xmlns="http://www.w3.org/2000/svg" xmlns:xlink="http://www.w3.org/1999/xlink">
	<desc>
			Created with Pixso.
	</desc>
	<defs>
		<clipPath id="clip2_35">
			<rect id="icn shopping-cart .icn-xs" width="24.000000" height="22.400164" fill="white" fill-opacity="0"/>
		</clipPath>
	</defs>
	<rect id="icn shopping-cart .icn-xs" width="24.000000" height="22.400164" fill="#FFFFFF" fill-opacity="0"/>
	<g clip-path="url(#clip2_35)">
		<path id="Vector" d="M9.59 20.8C9.59 21.68 8.88 22.4 8 22.4C7.11 22.4 6.39 21.68 6.39 20.8C6.39 19.91 7.11 19.2 8 19.2C8.88 19.2 9.59 19.91 9.59 20.8Z" fill="#737373" fill-opacity="1.000000" fill-rule="evenodd"/>
		<path id="Vector" d="M20.8 20.8C20.8 21.68 20.08 22.4 19.2 22.4C18.31 22.4 17.6 21.68 17.6 20.8C17.6 19.91 18.31 19.2 19.2 19.2C20.08 19.2 20.8 19.91 20.8 20.8Z" fill="#737373" fill-opacity="1.000000" fill-rule="evenodd"/>
		<path id="Vector" d="M22.4 4L4.65 4L4 0.64C3.96 0.45 3.86 0.29 3.71 0.17C3.56 0.05 3.38 -0.01 3.2 0L0 0L0 1.6L2.54 1.6L5.6 16.96C5.63 17.14 5.73 17.3 5.88 17.42C6.03 17.54 6.21 17.6 6.39 17.6L20.8 17.6L20.8 16L7.05 16L6.39 12.8L20.8 12.8C20.98 12.8 21.16 12.74 21.31 12.63C21.45 12.51 21.55 12.35 21.6 12.17L23.2 4.97C23.22 4.85 23.22 4.73 23.19 4.61C23.17 4.49 23.11 4.38 23.03 4.29C22.96 4.19 22.86 4.12 22.75 4.07C22.64 4.02 22.52 3.99 22.4 4ZM20.16 11.2L6.09 11.2L4.97 5.6L21.4 5.6L20.16 11.2Z" fill="#737373" fill-opacity="1.000000" fill-rule="nonzero"/>
	</g>
</svg>
