<svg width="151.000000" height="42.000000" viewBox="0 0 151 42" fill="none" xmlns="http://www.w3.org/2000/svg" xmlns:xlink="http://www.w3.org/1999/xlink">
	<desc>
			Created with Pixso.
	</desc>
	<defs>
		<clipPath id="clip7322_557">
			<rect id="fa-brands:stripe" rx="0.000000" width="102.000000" height="41.000000" transform="translate(24.500000 0.500000)" fill="white" fill-opacity="0"/>
		</clipPath>
		<clipPath id="clip7322_556">
			<rect id="col-md-3" rx="0.000000" width="150.000000" height="41.000000" transform="translate(0.500000 0.500000)" fill="white" fill-opacity="0"/>
		</clipPath>
	</defs>
	<g clip-path="url(#clip7322_556)">
		<rect id="fa-brands:stripe" rx="0.000000" width="102.000000" height="41.000000" transform="translate(24.500000 0.500000)" fill="#FFFFFF" fill-opacity="0"/>
		<g clip-path="url(#clip7322_557)">
			<path id="Vector" d="M50.55 3.29L43.58 4.75L43.55 27.41C43.55 31.59 46.74 34.3 50.97 34.3C53.32 34.3 55.04 33.87 55.99 33.36L55.99 27.98C55.07 28.35 50.57 29.65 50.57 25.48L50.57 15.43L55.99 15.43L55.99 9.41L50.57 9.41L50.55 3.29ZM64.89 11.5L64.46 9.41L58.28 9.41L58.28 33.79L65.41 33.79L65.41 17.38C67.09 15.19 69.94 15.62 70.86 15.9L70.86 9.41C69.89 9.08 66.56 8.46 64.89 11.5ZM79.75 0L72.57 1.51L72.57 7.27L79.75 5.75L79.75 0ZM31.22 16.59C31.22 15.49 32.16 15.06 33.65 15.05C35.82 15.05 38.59 15.7 40.77 16.86L40.77 10.21C38.4 9.29 36.03 8.92 33.67 8.92C27.87 8.92 24.01 11.91 24.01 16.91C24.01 24.73 34.87 23.46 34.87 26.83C34.87 28.14 33.73 28.57 32.14 28.57C29.77 28.57 26.72 27.6 24.32 26.31L24.32 32.67C26.97 33.8 29.66 34.28 32.12 34.28C38.06 34.28 42.15 31.77 42.15 26.67C42.15 18.26 31.22 19.77 31.22 16.59ZM127 21.89C127 14.65 123.45 8.94 116.66 8.94C109.87 8.94 105.74 14.65 105.74 21.84C105.74 30.35 110.61 34.28 117.57 34.28C120.98 34.28 123.54 33.52 125.48 32.45L125.48 27.14C123.54 28.11 121.3 28.7 118.47 28.7C115.68 28.7 113.24 27.72 112.91 24.42L126.9 24.42C126.93 24.05 127 22.57 127 21.89ZM112.85 19.21C112.85 16.03 114.83 14.7 116.61 14.7C118.37 14.7 120.24 16.03 120.24 19.21L112.85 19.21ZM94.68 8.94C91.88 8.94 90.08 10.24 89.08 11.15L88.71 9.4L82.41 9.4L82.41 41.98L89.56 40.48L89.58 32.5C90.61 33.25 92.14 34.28 94.63 34.28C99.75 34.28 104.42 30.59 104.42 21.62C104.43 13.41 99.7 8.94 94.68 8.94ZM92.97 28.42C91.3 28.42 90.3 27.82 89.61 27.09L89.56 16.59C90.3 15.78 91.33 15.19 92.97 15.19C95.58 15.19 97.38 18.08 97.38 21.77C97.4 25.58 95.63 28.42 92.97 28.42ZM72.58 33.79L79.76 33.79L79.76 9.41L72.58 9.41L72.58 33.79Z" fill="#737373" fill-opacity="1.000000" fill-rule="nonzero"/>
		</g>
	</g>
</svg>
