<svg width="24.000000" height="19.764648" viewBox="0 0 24 19.7646" fill="none" xmlns="http://www.w3.org/2000/svg" xmlns:xlink="http://www.w3.org/1999/xlink">
	<desc>
			Created with Pixso.
	</desc>
	<defs>
		<clipPath id="clip7322_635">
			<rect id="ant-design:twitter-outlined" rx="0.000000" width="23.000000" height="18.764706" transform="translate(0.500000 0.500000)" fill="white" fill-opacity="0"/>
		</clipPath>
	</defs>
	<rect id="ant-design:twitter-outlined" rx="0.000000" width="23.000000" height="18.764706" transform="translate(0.500000 0.500000)" fill="#FFFFFF" fill-opacity="0"/>
	<g clip-path="url(#clip7322_635)">
		<path id="Vector" d="M24 2.34C23.11 2.73 22.16 3.01 21.17 3.11C22.19 2.5 22.96 1.52 23.33 0.37C22.37 0.95 21.31 1.36 20.21 1.57C19.75 1.07 19.19 0.67 18.58 0.4C17.96 0.13 17.29 -0.01 16.62 0C13.9 0 11.71 2.23 11.71 4.98C11.71 5.37 11.75 5.75 11.83 6.13C7.75 5.91 4.12 3.93 1.7 0.91C1.26 1.67 1.03 2.54 1.03 3.42C1.03 5.16 1.9 6.68 3.22 7.58C2.44 7.55 1.68 7.33 1 6.94L1 7.01C1 9.43 2.69 11.44 4.94 11.9C4.51 12.01 4.08 12.07 3.64 12.07C3.33 12.07 3.02 12.04 2.72 11.99C3.34 13.97 5.15 15.41 7.31 15.45C5.62 16.79 3.5 17.58 1.21 17.58C0.8 17.58 0.42 17.57 0.02 17.52C2.2 18.94 4.78 19.76 7.57 19.76C16.6 19.76 21.55 12.16 21.55 5.57C21.55 5.35 21.55 5.14 21.53 4.92C22.49 4.21 23.33 3.33 24 2.34Z" fill="#21A6DF" fill-opacity="1.000000" fill-rule="nonzero"/>
	</g>
</svg>
